<?xml version="1.0" encoding="utf-8"?>
<!-- Generator: Adobe Illustrator 24.1.2, SVG Export Plug-In . SVG Version: 6.00 Build 0)  -->
<svg version="1.1" id="Layer_1" xmlns="http://www.w3.org/2000/svg" xmlns:xlink="http://www.w3.org/1999/xlink" x="0px" y="0px"
	 viewBox="0 0 1024 1024" style="enable-background:new 0 0 1024 1024;" xml:space="preserve">
<style type="text/css">
	.st0{fill:#242436;}
</style>
<g>
	<path class="st0" d="M532,226c38.7,0,76.1,7.5,111.3,22.4c34,14.4,64.6,35,90.9,61.3c26.3,26.3,46.9,56.9,61.3,90.9
		C810.5,435.9,818,473.3,818,512s-7.5,76.1-22.4,111.3c-14.4,34-35,64.6-61.3,90.9c-26.3,26.3-56.9,46.9-90.9,61.3
		C608.1,790.5,570.7,798,532,798s-76.1-7.5-111.3-22.4c-34-14.4-64.6-35-90.9-61.3c-26.3-26.3-46.9-56.9-61.3-90.9
		C253.5,588.1,246,550.7,246,512s7.5-76.1,22.4-111.3c14.4-34,35-64.6,61.3-90.9c26.3-26.3,56.9-46.9,90.9-61.3
		C455.9,233.5,493.3,226,532,226 M532,126c-213.2,0-386,172.8-386,386s172.8,386,386,386s386-172.8,386-386S745.2,126,532,126
		L532,126z"/>
</g>
<g>
	<circle class="st0" cx="532" cy="507" r="170"/>
	<path class="st0" d="M532,387c32.1,0,62.2,12.5,84.9,35.1c22.7,22.7,35.1,52.8,35.1,84.9s-12.5,62.2-35.1,84.9
		C594.2,614.5,564.1,627,532,627s-62.2-12.5-84.9-35.1C424.5,569.2,412,539.1,412,507s12.5-62.2,35.1-84.9S499.9,387,532,387
		 M532,287c-121.5,0-220,98.5-220,220s98.5,220,220,220s220-98.5,220-220S653.5,287,532,287L532,287z"/>
</g>
</svg>
