<svg xmlns="http://www.w3.org/2000/svg" width="220" height="240" xmlns:xlink="http://www.w3.org/1999/xlink">
  <defs>
    <path id="b" d="M113.9728 70.0985v-46.876c0-1.429-.762-2.749-2-3.464L79.4668.9905c-1.238-.714-2.763-.714-4 0l-31.723 18.315c-1.237.715-2 2.035-2 3.464v47.329h72.229z"/>
    <filter id="a" width="200%" height="200%" x="-50%" y="-50%" filterUnits="objectBoundingBox">
      <feOffset in="SourceAlpha" result="shadowOffsetOuter1"/>
      <feGaussianBlur stdDeviation="10" in="shadowOffsetOuter1" result="shadowBlurOuter1"/>
      <feColorMatrix values="0 0 0 0 0.4 0 0 0 0 0.450980392 0 0 0 0 0.615686275 0 0 0 1 0" in="shadowBlurOuter1"/>
    </filter>
    <path id="c" d="M.75569905.8502C5.43786685 42.074993 28.8794857 79.4234399 64.466 101.439 100.05158 79.4234399 123.49401 42.074993 128.175474.8502H.75569905z"/>
    <path id="e" d="M.1513 3.6842868C11.0851994 28.8824248 29.5278756 50.6297042 53.466 65.439c23.9339268-14.8070876 42.3748334-36.5500898 53.3093-61.7434415V.1132H.1513v3.5710868z"/>
  </defs>
  <g fill="none" fill-rule="evenodd">
    <g transform="translate(33 22.19)">
      <use fill="#000" filter="url(#a)" xlink:href="#b"/>
      <use fill="#D8B884" xlink:href="#b"/>
    </g>
    <path fill="#9BA9CC" d="M146.9728 92.2885v-46.876c0-1.429-.762-2.749-2-3.464l-32.506-18.768c-1.238-.714-2.763-.714-4 0l-31.723 18.315c-1.237.715-2 2.035-2 3.464v47.329h72.229z"/>
    <path fill="#000" d="M34.8705 83.6465l74.231-42.857c.843-.487 1.881-.487 2.724 0l74.231 42.857c.767.443 1.239 1.261 1.239 2.146v1.573c0 53.041-28.296 102.052-74.231 128.572l-1.239.716c-.843.486-1.881.486-2.724 0l-1.239-.716c-45.935-26.52-74.231-75.531-74.231-128.572v-1.573c0-.885.472-1.703 1.239-2.146"/>
    <path fill="#273A54" d="M105.2056 198.1326c-20.435-12.642-37.617-30.384-49.692-51.311-12.077-20.927-18.839-44.684-19.557-68.702l-.107-3.583c-.044-1.471.723-2.848 1.998-3.584l70.619-40.772c1.237-.714 2.762-.714 4 0l70.618 40.772c1.274.736 2.042 2.113 1.998 3.584l-.107 3.583c-.718 24.018-7.481 47.775-19.556 68.702-12.075 20.926-29.259 38.669-49.693 51.311l-3.156 1.952c-1.289.798-2.919.798-4.209 0l-3.156-1.952z"/>
    <path fill="#66739D" d="M110.4659 189.6284c-38.104-23.573-62.283-64.725-64.42-109.391-.071-1.485.713-2.883 2.001-3.626l60.419-34.883c1.238-.715 2.762-.715 4 0l60.419 34.883c1.288.743 2.072 2.141 2.001 3.626-2.137 44.666-26.317 85.818-64.42 109.391"/>
    <g transform="translate(46 88.19)">
      <mask id="d" fill="#fff">
        <use xlink:href="#c"/>
      </mask>
      <path fill="#7485AF" d="M153.0383 89.4252c0-48.918-39.656-88.575-88.575-88.575-48.918 0-88.575 39.657-88.575 88.575 0 48.919 39.657 88.575 88.575 88.575 48.919 0 88.575-39.656 88.575-88.575" mask="url(#d)"/>
    </g>
    <g transform="translate(57 124.19)">
      <mask id="f" fill="#fff">
        <use xlink:href="#e"/>
      </mask>
      <path fill="#9BA9CC" d="M106.7753 53.4252c0-29.443-23.868-53.312-53.312-53.312-29.443 0-53.312 23.869-53.312 53.312 0 29.443 23.869 53.312 53.312 53.312 29.444 0 53.312-23.869 53.312-53.312" mask="url(#f)"/>
    </g>
    <path fill="#273A54" d="M127.4909 130.9661l-1.796 2.654c-.097.142-.249.238-.418.263-4.443.66-8.884.87-13.27.649-.112-.005-.221-.042-.315-.105l-.48-.325c-.277-.188-.35-.565-.162-.842l6.232-9.205c.188-.278.564-.35.842-.162l9.205 6.231c.277.188.35.565.162.842zm6.493-30.502l3.106 2.102c.148.101.246.262.266.44.485 4.393.487 8.846-.007 13.272-.011.1-.047.195-.103.278l-.126.186c-.187.278-.564.35-.841.162l-9.206-6.231c-.277-.188-.35-.565-.162-.842l6.232-9.205c.187-.277.564-.35.841-.162zm.857-2.347l.559-.826c.299-.441.987-.311 1.094.211.097.47.187.941.272 1.413.095.524-.496.901-.937.602l-.826-.559c-.277-.187-.349-.564-.162-.841zm-4.641-17.298l.187.127c.083.056.152.132.199.22 2.103 3.926 3.755 8.06 4.936 12.319.048.173.017.359-.084.507l-2.102 3.106c-.188.277-.564.349-.842.162l-9.205-6.232c-.277-.188-.35-.564-.162-.842l6.232-9.205c.187-.277.564-.35.841-.162zm-30.502-6.494l.325-.48c.063-.094.151-.168.254-.215 3.989-1.835 8.19-3.289 12.56-4.326.167-.04.344-.007.486.089l2.654 1.797c.277.187.349.564.162.841l-6.232 9.206c-.188.277-.564.349-.842.162l-9.205-6.232c-.277-.188-.35-.564-.162-.842zm-10.277 10.857l-2.962-2.004c-.337-.229-.361-.723-.043-.979 2.568-2.064 5.292-3.935 8.151-5.6.556-.324 1.17.334.809.868l-5.114 7.553c-.187.278-.564.35-.841.162zm-7.931 11.715l-5.194-3.516c-.293-.199-.357-.608-.137-.884 2.377-2.977 4.996-5.733 7.829-8.244.208-.185.516-.203.746-.048l3.667 2.483c.278.188.35.564.163.841l-6.232 9.206c-.188.277-.565.35-.842.162zm-7.93 11.714l-4.856-3.287c-.252-.17-.341-.503-.206-.775 1.679-3.391 3.623-6.602 5.806-9.612.193-.265.563-.328.835-.144l5.332 3.609c.277.188.35.565.162.842l-6.232 9.205c-.187.277-.564.35-.841.162zm10.857 10.278l-3.61 5.332c-.184.272-.551.351-.828.176-3.145-1.983-6.143-4.243-8.962-6.767-.226-.203-.267-.545-.096-.796l3.287-4.856c.188-.278.564-.35.842-.162l9.205 6.231c.277.188.35.565.162.842zm11.715 7.93l-2.483 3.668c-.156.23-.449.327-.711.233-3.563-1.28-7.018-2.865-10.33-4.746-.308-.175-.4-.579-.202-.872l3.516-5.194c.188-.277.565-.35.842-.162l9.205 6.232c.278.187.35.564.163.841zm2.347.857l7.553 5.114c.534.361.209 1.201-.429 1.107-3.272-.484-6.497-1.21-9.648-2.173-.39-.119-.551-.586-.323-.924l2.005-2.961c.188-.278.564-.35.842-.163zm7.93-11.714l9.205 6.232c.278.188.35.564.163.841l-6.232 9.206c-.188.277-.565.35-.842.162l-9.205-6.232c-.277-.188-.35-.564-.162-.842l6.231-9.205c.188-.277.565-.35.842-.162zm8.788-14.061l6.231-9.205c.188-.278.565-.35.842-.163l9.205 6.232c.277.188.35.565.162.842l-6.231 9.205c-.188.277-.565.35-.842.162l-9.205-6.232c-.277-.188-.35-.564-.162-.841zm-14.062-8.788l-9.205-6.232c-.277-.188-.35-.564-.162-.841l6.231-9.206c.188-.277.565-.349.842-.162l9.205 6.232c.277.188.35.565.162.842l-6.231 9.205c-.188.277-.565.35-.842.162zm-7.93 11.714l-9.206-6.231c-.277-.188-.35-.565-.162-.842l6.232-9.205c.188-.278.564-.35.842-.162l9.205 6.231c.277.188.35.565.162.842l-6.232 9.205c-.187.278-.564.35-.841.162zm-.857 2.347l-6.232 9.206c-.188.277-.565.35-.842.162l-9.205-6.232c-.277-.188-.35-.564-.162-.842l6.231-9.205c.188-.277.565-.35.842-.162l9.205 6.232c.278.188.35.564.163.841zm12.571 5.584l-9.205-6.232c-.277-.188-.35-.564-.162-.842l6.231-9.205c.188-.277.565-.35.842-.162l9.205 6.232c.278.188.35.564.163.841l-6.232 9.206c-.188.277-.565.35-.842.162zm-10.224-4.726l9.205 6.231c.277.188.35.565.162.842l-6.232 9.205c-.187.277-.564.35-.841.162l-9.206-6.231c-.277-.188-.35-.565-.162-.842l6.232-9.205c.188-.278.564-.35.842-.162zm26.085-18.703l-9.206-6.232c-.277-.187-.349-.564-.162-.841l6.232-9.205c.188-.278.565-.35.842-.163l9.205 6.232c.277.188.35.565.162.842l-6.232 9.205c-.187.277-.564.35-.841.162zm-10.225-4.726l9.206 6.232c.277.187.349.564.162.841l-6.232 9.205c-.187.278-.564.35-.841.162l-9.206-6.231c-.277-.188-.35-.565-.162-.842l6.232-9.205c.187-.277.564-.35.841-.162zm8.426 36.942l6.231-9.205c.188-.277.565-.35.842-.162l9.205 6.232c.278.188.35.564.162.842l-6.231 9.205c-.188.277-.565.35-.842.162l-9.205-6.232c-.277-.188-.35-.564-.162-.842zm4.726-10.224l-6.232 9.205c-.187.278-.564.35-.841.162l-9.206-6.231c-.277-.188-.35-.565-.162-.842l6.232-9.205c.188-.278.564-.35.842-.162l9.205 6.231c.277.188.35.565.162.842zm-58.25.267l.683-1.739c.332-.843.683-1.673 1.047-2.496.152-.345.582-.466.895-.255l4.458 3.019c.278.187.35.564.163.841l-3.019 4.459c-.211.313-.656.36-.926.096-.643-.628-1.277-1.269-1.898-1.928l-1.28-1.36c-.161-.171-.209-.419-.123-.637zm56.066-43.051c1.864 1.983 3.571 4.078 5.122 6.265.388.547-.284 1.223-.839.847l-6.301-4.266c-.277-.188-.35-.564-.162-.842l1.634-2.414c.189.101.368.221.52.383l.026.027zm11.748 63.415l-2.414-1.634c-.277-.188-.35-.565-.162-.842l4.265-6.3c.376-.555 1.25-.177 1.093.475-.627 2.607-1.434 5.188-2.429 7.722l-.012.03c-.081.207-.203.385-.341.549zm-4.779 3.232l3.986-.767c1.277-.246 2.325-1.109 2.812-2.313l.015-.037c8.681-22.086 3.781-47.523-12.482-64.802l-.028-.029c-.899-.937-2.193-1.349-3.47-1.103l-3.986.768c-23.216 4.472-42.241 20.278-50.891 42.283l-.586 1.491c-.2.509-.244 1.057-.143 1.578.1.52.344 1.012.719 1.411l1.098 1.167c16.204 17.217 39.739 24.825 62.956 20.353z"/>
    <path fill="#0D111A" d="M174.6646 83.6375c.081-1.113.154-2.228.212-3.344.079-1.507-.69-2.932-1.996-3.686l-60.415-34.88c-1.237-.715-2.762-.715-4 0l-60.414 34.88c-1.306.754-2.075 2.179-1.997 3.685.058 1.117.131 2.232.213 3.345l64.198-37.065 64.199 37.065z"/>
    <path fill="#273A54" d="M132.5421 126.198c-.432 1.413-2.251 1.763-3.177.612-5.825-7.243-9.796-15.794-11.564-24.975-1.769-9.18-1.259-18.595 1.46-27.483.432-1.412 2.251-1.763 3.177-.612 5.825 7.243 9.796 15.794 11.564 24.975 1.769 9.18 1.258 18.595-1.46 27.483m-9.23-59.396c-1.058-1.125-2.596-1.62-4.115-1.331-1.517.293-2.76 1.326-3.326 2.765-8.777 22.327-3.823 48.042 12.62 65.513.806.855 1.888 1.347 3.027 1.406.359.018.724-.006 1.088-.076 1.517-.293 2.761-1.326 3.327-2.765 8.775-22.328 3.821-48.043-12.621-65.512"/>
    <path fill="#273A54" d="M142.6883 174.6089l-8.632-44.814-4.761.917 8.632 44.814"/>
    <path fill="#222E49" d="M165.4197 141.8205c-12.075 20.926-29.259 38.669-49.692 51.311l-3.157 1.952c-1.29.798-2.92.798-4.209.001l-3.156-1.953c-20.434-12.642-37.617-30.384-49.692-51.311-12.024-20.835-18.775-44.475-19.543-68.385-.09.354-.133.724-.121 1.1l.107 3.583c.718 24.018 7.481 47.775 19.557 68.702 12.075 20.927 29.258 38.669 49.692 51.311l3.156 1.953c1.289.797 2.919.797 4.209-.001l3.157-1.952c20.433-12.642 37.617-30.385 49.692-51.311 12.075-20.927 18.838-44.684 19.556-68.702l.107-3.583c.011-.376-.032-.746-.122-1.1-.768 23.91-7.519 47.55-19.541 68.385"/>
    <path fill="#273A54" d="M30.3669 176.4526l-.001.001c-1.219 2.071-3.381 3.23-5.773 3.067-2.398-.15-4.396-1.557-5.344-3.765-.033-.076-.028-.165.014-.238 1.147-1.95 3.126-3.081 5.356-3.081.139 0 .277.004.418.014 2.397.15 4.395 1.558 5.344 3.766.033.076.028.165-.014.236m-11.12-14.706c-1.188 1.112-2.468 1.527-3.527 1.644-.06-.335-.162-.661-.305-.966-.68-1.46-2.132-2.32-3.646-2.32-.568 0-1.144.12-1.692.376-.105.049-.207.102-.307.16-.534-.803-.873-1.723-.991-2.704-.01-.083.021-.167.082-.225 1.753-1.642 4.149-2.133 6.404-1.311 2.258.823 3.777 2.737 4.063 5.122.01.083-.021.166-.081.224m-9.481-36.48c-.035.079-.102.134-.185.153-2.349.512-4.655-.294-6.173-2.157-1.517-1.864-1.84-4.286-.862-6.482.034-.076.102-.132.184-.15.466-.102.929-.151 1.385-.151 1.846 0 3.57.814 4.787 2.308 1.517 1.862 1.84 4.285.864 6.479m.483-22.078c.748.106 1.52-.006 2.223-.334.972-.453 1.71-1.257 2.077-2.265.346-.951.323-1.976-.06-2.904.057-.019.114-.038.171-.055.08-.022.168-.009.234.042 1.922 1.442 2.82 3.715 2.401 6.081-.419 2.366-2.042 4.193-4.342 4.888-.077.023-.168.009-.234-.042-1.731-1.298-2.626-3.306-2.47-5.411m4.581 16.204c1.152-.938 2.518-1.419 3.912-1.419.859 0 1.729.183 2.566.555.078.034.134.104.153.186.511 2.347-.294 4.655-2.157 6.173-1.863 1.515-4.286 1.839-6.481.862-.076-.033-.132-.103-.15-.185-.512-2.347.294-4.654 2.157-6.172m5.836 34.491c.821-2.258 2.736-3.778 5.121-4.064.01-.002.02-.002.031-.002.072 0 .144.031.195.084 1.642 1.753 2.131 4.148 1.31 6.405-.822 2.257-2.736 3.776-5.121 4.062-.076.016-.167-.02-.225-.081-.079-.085-.142-.177-.216-.264-.421-.737-.826-1.482-1.22-2.232-.374-1.249-.352-2.6.125-3.908m8.84 14.626c.15-2.398 1.557-4.396 3.765-5.344.034-.015.069-.022.104-.022.047 0 .093.012.134.037 2.071 1.217 3.218 3.376 3.067 5.773-.15 2.397-1.558 4.395-3.765 5.344-.001 0-.001.001-.001.001-.076.033-.165.027-.237-.016-.14-.082-.264-.179-.395-.269-.647-.678-1.285-1.365-1.904-2.067-.569-1.017-.846-2.193-.768-3.437m17.072 20.381c-.663 2.31-2.468 3.958-4.827 4.41-2.36.452-4.646-.414-6.114-2.316-.051-.066-.068-.154-.045-.233.663-2.31 2.468-3.958 4.828-4.409.412-.079.822-.119 1.225-.119 1.908 0 3.677.865 4.889 2.434.051.066.067.153.044.233m-34.276-44.698c-.014.082-.067.154-.141.191 0 0-.001 0-.001.001-2.144 1.08-4.58.877-6.515-.55-1.933-1.426-2.849-3.691-2.451-6.061.014-.082.068-.154.142-.192.911-.459 1.875-.686 2.83-.686 1.294 0 2.572.416 3.684 1.237 1.934 1.425 2.85 3.69 2.452 6.06m3.439-6.952c1.206-1.636 3.013-2.544 4.975-2.544.358 0 .721.03 1.087.092.082.014.153.067.191.142 1.081 2.145.876 4.58-.55 6.513-1.426 1.934-3.69 2.851-6.06 2.452h-.001c-.082-.013-.154-.066-.192-.14-1.081-2.146-.876-4.581.55-6.515m30.34 38.058c.047-.036.104-.055.162-.055.024 0 .049.003.072.01 2.31.663 3.958 2.468 4.409 4.827.453 2.359-.414 4.645-2.315 6.114-.066.052-.155.068-.234.045-2.309-.663-3.957-2.468-4.409-4.826-.452-2.36.414-4.647 2.315-6.115m13.068 16.371c-3.213-1.17-6.294-2.561-9.238-4.141 2.271-1.923 3.342-4.879 2.778-7.824-.588-3.069-2.818-5.511-5.821-6.373-.688-.197-1.438-.055-2.009.384-2.473 1.91-3.644 5.004-3.057 8.073.053.278.134.544.214.811-2.832-2.042-5.483-4.29-7.96-6.699 2.609-1.316 4.332-3.875 4.516-6.821.196-3.119-1.355-6.04-4.049-7.623-.621-.366-1.384-.411-2.042-.129-2.871 1.234-4.776 3.938-4.971 7.057-.005.07.003.139.001.21-1.593-2.043-3.081-4.162-4.442-6.36 2.818-.56 5.138-2.511 6.133-5.244 1.069-2.936.405-6.178-1.731-8.457 0-.001-.001-.001-.001-.001-.492-.523-1.207-.783-1.921-.699-3.103.373-5.695 2.429-6.763 5.365-.077.212-.125.427-.184.641-1.156-2.568-2.15-5.209-2.998-7.902.279.029.557.047.833.047 2.592 0 5.042-1.217 6.618-3.354 1.853-2.515 2.131-5.811.724-8.602-.324-.64-.939-1.095-1.645-1.213-3.087-.518-6.149.723-8.002 3.238-.265.358-.488.735-.688 1.122-.56-3.108-.914-6.265-1.053-9.452.969.375 1.976.572 2.981.572 1.856 0 3.69-.633 5.194-1.858 2.423-1.973 3.515-5.096 2.848-8.149-.152-.7-.635-1.293-1.291-1.587-2.854-1.27-6.133-.832-8.556 1.141-.369.3-.696.635-1.002.985.233-2.783.627-5.573 1.203-8.361 2.867-.962 4.966-3.371 5.495-6.365.545-3.077-.668-6.153-3.167-8.029-.574-.431-1.326-.562-2.015-.356-.488.147-.969.35-1.513.638-.27.143-.46.402-.515.702-.056.301.029.61.23.84.149.17.25.319.319.467.47 1.007.033 2.209-.975 2.679-.548.256-1.182.244-1.742-.033-.272-.136-.59-.138-.868-.01-.275.129-.477.377-.548.672-.785 3.26.383 6.527 3.048 8.528.076.057.157.103.238.149-.504 2.487-.866 4.976-1.103 7.459-.07-.093-.126-.193-.2-.284-1.973-2.423-5.098-3.514-8.147-2.846-.704.153-1.296.636-1.587 1.292-1.27 2.854-.833 6.132 1.139 8.555 1.591 1.953 3.928 3.041 6.373 3.041.589 0 1.185-.063 1.777-.193.126-.027.244-.077.361-.125.116 3.213.442 6.397.975 9.534-.104-.085-.197-.179-.306-.26-2.515-1.853-5.81-2.13-8.603-.725-.641.324-1.094.94-1.213 1.646-.518 3.081.723 6.148 3.238 8.002 1.451 1.07 3.161 1.614 4.884 1.614 1.264 0 2.537-.293 3.717-.889.156-.078.298-.175.43-.284.944 3.099 2.091 6.127 3.43 9.067-.312-.161-.634-.308-.97-.431-2.941-1.07-6.178-.406-8.457 1.732-.001 0-.001.001-.001.001-.523.491-.784 1.209-.699 1.921.206 1.707.92 3.276 2.065 4.538.187.206.45.325.729.328.32-.017.545-.11.736-.311.179-.188.382-.336.6-.438.489-.227 1.037-.251 1.542-.067.506.185.91.555 1.137 1.044.151.322.207.675.168 1.052-.028.277.06.551.242.76.181.209.442.333.718.342.097.004.194.006.289.006 2.082-.001 4.06-.785 5.595-2.224.16-.15.286-.326.395-.511 1.687 2.781 3.555 5.453 5.598 7.994-.47-.114-.949-.203-1.444-.234-3.13-.213-6.041 1.355-7.623 4.049-.364.619-.412 1.383-.129 2.042 1.234 2.871 3.937 4.776 7.056 4.971.176.012.352.017.527.017 2.918 0 5.602-1.524 7.097-4.066.091-.156.162-.321.213-.491 2.669 2.633 5.54 5.082 8.617 7.296-.292.024-.584.049-.876.105-3.07.587-5.513 2.817-6.376 5.823-.197.69-.053 1.44.386 2.007 1.583 2.051 3.981 3.207 6.503 3.207.52 0 1.044-.05 1.569-.15 3.069-.587 5.511-2.818 6.373-5.821.036-.125.048-.253.062-.381 3.15 1.718 6.451 3.229 9.904 4.486.112.041.228.06.341.06.409 0 .792-.252.94-.658.189-.519-.078-1.093-.598-1.281m157.0432-72.0588c-.696 1.492-.377 3.233.69 4.401-1.478 1.32-3.454 1.84-5.451 1.407-.083-.019-.15-.075-.184-.152-.977-2.195-.655-4.618.863-6.48 1.217-1.494 2.941-2.309 4.787-2.309.456 0 .92.05 1.385.152.082.018.15.074.185.152.096.216.18.438.252.667-1.096.315-2.027 1.091-2.527 2.162m-10.445 36.789c.721-.263 1.456-.391 2.179-.391 1.542 0 3.033.584 4.225 1.702.062.058.092.142.082.225-.286 2.385-1.806 4.3-4.063 5.121-2.257.823-4.652.331-6.405-1.311 0-.001-.001-.001-.001-.002-.06-.056-.09-.139-.08-.222.286-2.386 1.805-4.3 4.063-5.122m-9.772 16.05c.141-.01.28-.014.418-.014 2.229 0 4.209 1.131 5.357 3.082.042.072.046.16.013.238-.948 2.207-2.946 3.614-5.343 3.764-2.394.166-4.556-.996-5.774-3.067l-.001-.001c-.042-.071-.047-.16-.014-.237.949-2.208 2.947-3.615 5.344-3.765m-11.539-3.497c-.151-2.398.996-4.556 3.069-5.775.04-.023.085-.035.131-.035.036 0 .072.007.106.022 2.207.948 3.614 2.947 3.764 5.344.079 1.244-.199 2.42-.768 3.437-.619.702-1.257 1.389-1.904 2.067-.132.091-.256.188-.396.27-.07.04-.159.046-.236.015l-.001-.001c-2.207-.949-3.614-2.947-3.765-5.344m14.599-8.666c-.058.061-.144.096-.225.081-2.385-.286-4.299-1.805-5.121-4.063-.821-2.257-.331-4.652 1.311-6.404.058-.062.14-.097.225-.082 2.385.286 4.3 1.806 5.121 4.063.477 1.309.499 2.66.125 3.908-.394.751-.799 1.496-1.22 2.233-.074.087-.137.179-.216.264m9.304-34.723c-.018.082-.074.151-.15.185-2.195.977-4.618.654-6.48-.863-1.864-1.517-2.669-3.825-2.158-6.172.019-.082.076-.152.151-.185.838-.373 1.709-.557 2.568-.557 1.395 0 2.761.483 3.913 1.421 1.863 1.518 2.669 3.824 2.156 6.171m-4.622-21.811c-.419-2.367.479-4.639 2.401-6.081.066-.051.153-.065.234-.042 2.3.695 3.923 2.522 4.342 4.888.419 2.366-.479 4.639-2.4 6.081-.067.051-.156.065-.235.042-2.3-.695-3.923-2.522-4.342-4.888m7.445 34.379c1.112-.821 2.39-1.237 3.683-1.237.956 0 1.92.228 2.832.688.075.037.127.108.141.191.398 2.369-.518 4.634-2.451 6.06-1.935 1.426-4.371 1.63-6.515.549 0-.001-.001-.001-.001-.001-.074-.037-.127-.108-.14-.191-.399-2.369.517-4.634 2.451-6.059m-25.742 52.617c.023.081.006.169-.044.235-1.47 1.901-3.754 2.769-6.115 2.315-2.359-.451-4.164-2.099-4.827-4.409-.023-.08-.006-.168.044-.233 1.213-1.569 2.982-2.434 4.889-2.434.403 0 .813.039 1.225.118 2.36.452 4.164 2.099 4.828 4.408m-12.416-7.982c.889-1.905.149-4.16-1.647-5.185.803-1.121 1.958-1.933 3.34-2.329.079-.024.168-.007.234.045 1.902 1.468 2.767 3.754 2.316 6.114-.452 2.359-2.101 4.164-4.411 4.827-.078.022-.165.007-.233-.045-.568-.439-1.045-.956-1.425-1.545.794-.398 1.44-1.053 1.826-1.882m26.564-41.324c-1.426-1.934-1.631-4.369-.55-6.513.038-.075.11-.129.193-.142.365-.062.727-.092 1.085-.092 1.962 0 3.769.908 4.975 2.544 1.426 1.933 1.631 4.369.549 6.516-.037.074-.109.126-.193.14-2.369.399-4.635-.518-6.059-2.453m20.334-22.15c.302.027.583-.112.779-.333.198-.222.287-.52.243-.813-.113-.762-.325-1.494-.629-2.178-.29-.656-.883-1.139-1.586-1.293-3.047-.668-6.174.424-8.15 2.847-.074.09-.13.19-.199.283-.237-2.483-.599-4.971-1.103-7.458.081-.046.163-.092.238-.149 2.499-1.876 3.713-4.952 3.169-8.029-.545-3.078-2.743-5.551-5.734-6.455-.684-.207-1.44-.074-2.013.357-2.499 1.876-3.713 4.952-3.169 8.029.53 2.993 2.63 5.403 5.496 6.364.576 2.788.97 5.579 1.203 8.361-.306-.349-.632-.684-1-.984-2.424-1.973-5.703-2.411-8.56-1.14-.654.293-1.136.886-1.289 1.586-.667 3.052.425 6.176 2.848 8.149 1.504 1.225 3.337 1.858 5.194 1.858 1.004 0 2.012-.197 2.981-.572-.138 3.188-.493 6.344-1.054 9.452-.199-.386-.422-.763-.687-1.122-1.853-2.515-4.92-3.758-8-3.238-.708.118-1.323.572-1.647 1.214-1.407 2.79-1.129 6.086.725 8.601 1.575 2.137 4.026 3.355 6.618 3.355.276 0 .553-.019.831-.047-.847 2.693-1.841 5.333-2.997 7.901-.059-.214-.107-.43-.184-.641-1.068-2.937-3.66-4.992-6.763-5.365-.705-.083-1.429.175-1.921.7-2.137 2.279-2.801 5.52-1.732 8.457.995 2.733 3.316 4.684 6.133 5.244-1.361 2.198-2.849 4.317-4.442 6.359-.002-.07.006-.138.002-.209-.196-3.119-2.101-5.823-4.971-7.057-.662-.282-1.425-.236-2.042.128-2.694 1.584-4.246 4.505-4.05 7.624.185 2.945 1.906 5.505 4.516 6.821-2.476 2.409-5.128 4.657-7.959 6.699.079-.267.16-.533.214-.811.587-3.07-.584-6.163-3.058-8.073 0-.001-.001-.001-.001-.001-.568-.438-1.318-.581-2.007-.383-2.308.662-4.141 2.207-5.158 4.351-.134.282-.129.61.015.887.142.277.406.472.713.526.206.037.366.083.501.147.489.227.859.632 1.043 1.138.185.506.161 1.053-.067 1.543-.292.625-.881 1.051-1.577 1.14-.31.04-.583.222-.739.492-.157.271-.177.598-.057.886.508 1.214 1.282 2.244 2.28 3.087-2.944 1.581-6.024 2.971-9.236 4.141-.52.188-.787.762-.598 1.281.148.406.531.658.94.658.113 0 .229-.019.341-.06 3.454-1.257 6.754-2.768 9.904-4.486.014.128.026.256.062.381.863 3.003 3.304 5.233 6.373 5.821.525.1 1.049.15 1.569.15 2.522 0 4.92-1.157 6.504-3.207.438-.567.582-1.317.385-2.007 0-.001-.001-.001-.001-.002-.862-3.004-3.305-5.234-6.375-5.821-.292-.056-.584-.081-.875-.106 3.077-2.213 5.947-4.662 8.616-7.295.051.17.122.335.213.49 1.495 2.542 4.179 4.067 7.097 4.067.175 0 .351-.005.528-.017 3.118-.195 5.821-2.1 7.055-4.97.283-.661.236-1.424-.128-2.042-1.584-2.695-4.498-4.263-7.624-4.05-.495.031-.974.119-1.444.234 2.043-2.541 3.912-5.213 5.599-7.994.108.186.234.361.394.511 1.56 1.462 3.568 2.234 5.622 2.234.948 0 1.906-.164 2.834-.502 2.937-1.068 4.992-3.66 5.365-6.763.085-.711-.175-1.429-.7-1.921-2.28-2.137-5.519-2.802-8.456-1.732-.337.123-.658.27-.971.431 1.339-2.94 2.486-5.968 3.431-9.067.131.109.273.206.429.284 1.18.595 2.453.889 3.718.889 1.722 0 3.432-.545 4.883-1.614 2.515-1.854 3.756-4.921 3.238-8.001-.12-.709-.574-1.324-1.214-1.646-2.788-1.408-6.084-1.129-8.602.724-.109.08-.201.175-.305.26.532-3.137.858-6.321.974-9.535.117.049.235.098.361.126.591.13 1.184.192 1.772.192 2.431 0 4.758-1.076 6.349-3.008.187-.228.264-.527.211-.818-.054-.29-.234-.542-.492-.688-.924-.523-1.286-1.638-.841-2.593.342-.734 1.096-1.172 1.898-1.164M84.2322 194.3392c-1.099 0-2.183-.289-3.136-.837l-12.194-6.976c-1.955-1.121-3.17-3.214-3.17-5.467v-13.912c0-2.253 1.215-4.347 3.169-5.466l12.203-6.984c.951-.544 2.032-.832 3.128-.832s2.177.288 3.128.832l12.202 6.983c1.955 1.12 3.17 3.214 3.17 5.467v13.912c0 2.253-1.215 4.346-3.169 5.466l-12.203 6.982c-.945.543-2.029.832-3.128.832"/>
    <path fill="#9BA9CC" d="M70.7322 181.0586v-13.913c0-.465.249-.895.653-1.126l12.202-6.982c.4-.229.89-.229 1.29 0l12.202 6.982c.404.231.653.661.653 1.127v13.912c0 .466-.249.895-.653 1.127l-12.202 6.982c-.4.228-.89.228-1.29 0l-12.202-6.982c-.404-.232-.653-.661-.653-1.127"/>
    <path fill="#161A29" d="M84.6982 166.7092l1.761 3.567c.075.154.222.26.391.285l3.937.572c.426.062.596.585.288.886l-2.849 2.777c-.123.119-.178.291-.15.46l.673 3.92c.073.425-.373.749-.754.548l-3.521-1.851c-.152-.08-.332-.08-.484 0l-3.521 1.851c-.381.201-.827-.123-.754-.548l.673-3.92c.029-.169-.027-.341-.15-.46l-2.848-2.777c-.309-.301-.139-.824.287-.886l3.937-.572c.169-.025.316-.131.391-.285l1.761-3.567c.191-.386.741-.386.932 0"/>
    <path d="M0 0h220v240H0z"/>
  </g>
</svg>