<?xml version="1.0" encoding="utf-8"?>
<!-- Generator: Adobe Illustrator 24.1.2, SVG Export Plug-In . SVG Version: 6.00 Build 0)  -->
<svg version="1.1" id="Layer_1" xmlns="http://www.w3.org/2000/svg" xmlns:xlink="http://www.w3.org/1999/xlink" x="0px" y="0px"
	 viewBox="0 0 1366 768" style="enable-background:new 0 0 1366 768;" xml:space="preserve">
<style type="text/css">
	.st0{fill:#E5D7C8;}
	.st1{fill:#FEE8FB;}
	.st2{fill:#FFA78B;}
</style>
<path class="st0" d="M340.7,222.1l7.7-3.4c0.1,0,0.1,0,0.1-0.1c0,0,0.1-0.1,0.1-0.1c0-0.1,0-0.1-0.1-0.1c0,0-0.1-0.1-0.1-0.1
	l-7.7-3.4c0,0-0.1,0-0.1,0c0,0,0,0,0-0.1l-3.5-7.7c0-0.2-0.2-0.2-0.3,0l-3.4,7.7h-0.1l-7.8,3.5c0,0.1-0.1,0.1-0.1,0.2
	c0,0.1,0,0.1,0.1,0.2l7.8,3.4h0.1l3.4,7.8c0.1,0.2,0.3,0.2,0.3,0l3.5-7.7C340.6,222.2,340.6,222.1,340.7,222.1
	C340.6,222.1,340.7,222.1,340.7,222.1z"/>
<path class="st1" d="M890.7,550.1l6.2-2.7c0,0,0.1,0,0.1,0c0,0,0-0.1,0-0.1c0,0,0-0.1,0-0.1c0,0-0.1,0-0.1,0l-6.2-2.7c0,0,0,0-0.1,0
	c0,0,0,0,0-0.1l-2.8-6.2c0-0.2-0.2-0.2-0.2,0l-2.7,6.2h-0.1l-6.3,2.8c0,0-0.1,0.1-0.1,0.2c0,0.1,0,0.1,0.1,0.2l6.3,2.7h0.1l2.7,6.3
	c0.1,0.2,0.2,0.2,0.2,0L890.7,550.1C890.6,550.2,890.6,550.1,890.7,550.1C890.6,550.1,890.6,550.1,890.7,550.1z"/>
<path class="st2" d="M1095.7,333.1l6.2-2.7c0,0,0.1,0,0.1,0c0,0,0-0.1,0-0.1s0-0.1,0-0.1c0,0-0.1,0-0.1,0l-6.2-2.7c0,0,0,0-0.1,0
	c0,0,0,0,0-0.1l-2.8-6.2c0-0.2-0.2-0.2-0.2,0l-2.7,6.2h-0.1l-6.3,2.8c0,0-0.1,0.1-0.1,0.2c0,0.1,0,0.1,0.1,0.2l6.3,2.7h0.1l2.7,6.3
	c0.1,0.2,0.2,0.2,0.2,0L1095.7,333.1C1095.6,333.2,1095.6,333.1,1095.7,333.1C1095.6,333.1,1095.6,333.1,1095.7,333.1z"/>
</svg>
